<?xml version="1.0" encoding="utf-8"?>
<!-- Generator: Adobe Illustrator 28.2.0, SVG Export Plug-In . SVG Version: 6.00 Build 0)  -->
<svg version="1.1" id="Layer_2_00000116226073118207109390000014575010168853143451_"
	 xmlns="http://www.w3.org/2000/svg" xmlns:xlink="http://www.w3.org/1999/xlink" x="0px" y="0px" viewBox="0 0 627.8 101.5"
	 style="enable-background:new 0 0 627.8 101.5;" xml:space="preserve">
<style type="text/css">
	.st0{fill:#CA9C53;}
</style>
<g id="Layer_1-2">
	<path class="st0" d="M126.4,85.5c-1.9-0.7-3.8-1.4-5.7-2V28.3L71.7,0l-49,28.3v55.2C14.9,86.1,7.3,89.3,0,93.2
		c7.4-3.3,15-6.1,22.7-8.4c1.1-0.3,2.3-0.7,3.5-1c7-1.9,14.2-3.4,21.4-4.4c0,1.3,0.1,2.6,0.1,3.8c0.2,7.4-5.5,14.3-12.7,15.9
		c-1,0.2-1.9,0.4-2.9,0.4H32c0,0,0,0,0,0c-0.1,0.3-0.2,0.5-0.2,0.9c0.1,0.3,0.1,0.6,0.2,0.8l0,0.1c0,0,0,0,0,0H32c0.8,0,1.6,0,2.4,0
		c9.3-0.6,16.8-8.8,17.1-18c0-1.5,0.1-2.9,0.1-4.4c21.8-2.5,44.1-1,65.6,4.9c1.2,0.3,2.3,0.6,3.5,1c1.1,0.3,2.1,0.6,3.2,1
		c6.6,2.1,13.1,4.6,19.5,7.4C137.9,90.3,132.2,87.7,126.4,85.5L126.4,85.5z M71.7,3l46.4,26.8v14.8H94.6L93,48l-8.2,17.7l-3.5-7.4
		l-1.5-3.1L76.5,48l-1.6-3.4h-5l1.6,3.4l5.8,12.5l-2.4,5.2L66.7,48l-1.6-3.4H51.8c0-0.9,0-1.7,0-2.5c0-4-0.2-9.6-0.2-13.7
		c0-4.1,1.6-8.2,4.5-11.2c2.7-2.9,6.6-4.8,10.6-5.1l0.4,0l0.1,0h0.1c0,0,0,0,0,0c0.1-0.3,0.2-0.5,0.2-0.9c-0.1-0.4-0.1-0.6-0.2-0.9
		c0,0,0,0,0,0h-0.1h-0.1c-4.8-0.2-9.5,1.5-13.1,4.7c-4,3.5-6.4,8.9-6.3,14.2c0,0.4,0,2.2-0.1,2.6c-0.1,4.2-0.1,8.6-0.2,12.9H25.3
		V29.8L71.7,3z M25.3,82.6V48h22.1c0,7.2,0,14.5,0,21.6c0,2.3,0.1,5.1,0.1,7.9C40,78.6,32.6,80.4,25.3,82.6z M104.1,79
		c-17.2-3.7-35-4.4-52.4-2.1c0-2.4,0.1-4.9,0.1-7.3c0.1-6.9,0.1-14.4,0-21.6h9.8l9.6,20.5h5.3l2.3-4.9l2.3,4.9h5.3L96,48h22.2v34.7
		C113.5,81.2,108.8,80,104.1,79L104.1,79z"/>
	<g>
		<path class="st0" d="M176.6,13h0.7c1.5,0,2.6,0.2,3.6,0.5c0.9,0.3,1.4,0.9,1.4,1.9v34.2c0,0.9-0.5,1.6-1.4,1.9
			c-0.9,0.3-2.1,0.4-3.6,0.4h-0.7v3.5h20.5v-3.5H196c-0.6,0-1.3,0-2-0.1s-1.3-0.1-1.8-0.3c-0.6-0.1-1-0.3-1.4-0.7
			c-0.3-0.3-0.5-0.8-0.5-1.3V34.3c1.2,0,2.4,0.1,3.6,0.1c1.8,0.1,3.7,0.1,5.5,0.2c1.9,0.1,3.7,0.2,5.5,0.3v-5
			c-1.8,0-3.6,0.1-5.5,0.2c-1.9,0.1-3.7,0.2-5.5,0.2c-1.2,0-2.4,0.1-3.6,0.1V13.8h7.9c1.7,0,3.1,0.1,4.2,0.2
			c1.1,0.1,1.9,0.4,2.5,0.8s0.9,1,0.9,1.8l0.6,5.6h4.3V9.5h-34L176.6,13L176.6,13z"/>
		<path class="st0" d="M231,51.6c-0.9-0.3-1.3-0.9-1.3-1.7V22.5h-12.6v3.4l0.6,0.1c1.4,0.3,2.5,0.5,3.1,0.9s1,0.9,1,1.8v21.2
			c0,0.9-0.4,1.4-1.3,1.7c-0.9,0.3-2,0.4-3.4,0.4h-0.1v3.3h17.4v-3.3h-0.1C233,52.1,231.9,51.9,231,51.6L231,51.6z"/>
		<path class="st0" d="M225.5,16.3c1.4,0,2.5-0.4,3.4-1.2c0.9-0.8,1.3-1.9,1.3-3.3s-0.4-2.4-1.3-3.2s-2-1.2-3.4-1.2
			s-2.6,0.4-3.5,1.2s-1.3,1.8-1.3,3.2s0.4,2.5,1.3,3.3S224.1,16.3,225.5,16.3z"/>
		<path class="st0" d="M275.6,51.9c-0.7-0.1-1.3-0.3-1.6-0.7c-0.4-0.3-0.6-0.8-0.6-1.3V32.5c0-2.4-0.4-4.5-1.3-6s-2.1-2.7-3.7-3.5
			s-3.4-1.1-5.5-1.1c-1.7,0-3.3,0.3-4.7,0.8s-2.8,1.4-3.9,2.5c-1,0.9-1.9,2-2.8,3.2v-5.9h-11.9v3.4l0.6,0.1c1,0.2,1.7,0.3,2.4,0.5
			c0.6,0.2,1.1,0.4,1.4,0.7c0.3,0.3,0.5,0.8,0.5,1.3v21.2c0,0.6-0.2,1-0.6,1.3c-0.4,0.3-1,0.6-1.7,0.7s-1.5,0.2-2.4,0.2h-0.1v3.3
			h16.8v-3.3h-0.2c-0.5,0-1.1,0-1.7-0.1c-0.6,0-1.2-0.1-1.6-0.2s-0.7-0.2-0.7-0.3V32.3c0.6-0.8,1.1-1.6,1.7-2.2c1-1.1,2.1-2,3.3-2.5
			s2.4-0.8,3.7-0.8c1.2,0,2.1,0.2,2.8,0.7s1.2,1.1,1.5,2c0.3,0.9,0.5,2.1,0.5,3.6v18.4c0,0.1-0.2,0.2-0.7,0.3
			c-0.5,0.1-1,0.2-1.7,0.2c-0.6,0-1.2,0.1-1.7,0.1h-0.1v3.3h16.8v-3.3H278C277.1,52.1,276.3,52,275.6,51.9L275.6,51.9z"/>
		<path class="st0" d="M314.1,32.3c-0.7-2.3-1.6-4.3-2.9-5.8s-2.8-2.7-4.7-3.5s-4-1.2-6.5-1.2c-3,0-5.8,0.7-8.2,2.2
			c-2.4,1.4-4.4,3.5-5.8,6s-2.2,5.6-2.2,9s0.8,6.5,2.3,9s3.6,4.5,6.2,5.9c2.6,1.4,5.6,2.1,8.9,2.1c2.4,0,4.4-0.3,6.1-1
			s3.2-1.6,4.5-2.8c1.2-1.2,2.3-2.5,3.1-4l-3.4-2.8c-0.6,0.9-1.3,1.9-2.1,2.9c-0.9,1-1.9,1.8-3.1,2.4c-1.2,0.7-2.6,1-4.3,1
			c-1.5,0-3-0.3-4.2-0.8c-1.2-0.5-2.3-1.3-3.2-2.4c-0.9-1.1-1.6-2.4-2.1-4c-0.4-1.2-0.6-2.5-0.7-3.9h23.4
			C315.1,37.4,314.8,34.7,314.1,32.3z M294.1,29.4c0.8-1.1,1.7-2,2.7-2.5c1-0.6,2.1-0.9,3.3-0.9c1.2,0,2.3,0.2,3.2,0.7
			c0.9,0.5,1.6,1.2,2.3,2.2c0.6,1,1,2.2,1.4,3.8c0.2,1.2,0.4,2.5,0.5,3.9h-15.5c0.1-1.1,0.3-2.1,0.5-3
			C292.7,31.9,293.3,30.5,294.1,29.4L294.1,29.4z"/>
		<path class="st0" d="M367.1,13h1c0.7,0,1.5,0,2.2,0.1s1.3,0.2,1.8,0.4c0.5,0.2,0.7,0.4,0.7,0.7L365,49l-9.7-39.5h-8.5l-9.2,39.7
			l-8.5-35.6c0-0.2,0.3-0.3,0.8-0.4c0.5-0.1,1.2-0.2,1.9-0.2c0.8,0,1.5-0.1,2.3-0.1h1V9.6H317V13h0.4c1.1,0,2,0.1,2.7,0.3
			c0.7,0.2,1.1,0.9,1.5,1.9l9.9,40.1h9l9.2-39l9.5,39h8.8l9.2-39.5c0.2-1.1,0.7-1.9,1.4-2.2s1.6-0.5,2.7-0.5h0.3V9.6h-14.5L367.1,13
			L367.1,13z"/>
		<path class="st0" d="M413.8,26.6c-1.6-1.5-3.4-2.7-5.5-3.5c-2.1-0.8-4.5-1.3-7.1-1.3s-4.9,0.4-7.1,1.3s-4,2-5.5,3.5
			c-1.6,1.5-2.8,3.3-3.6,5.4c-0.8,2.1-1.3,4.4-1.3,6.9c0,3.3,0.7,6.3,2.2,8.9c1.5,2.6,3.5,4.6,6.2,6s5.6,2.2,9.1,2.2
			s6.5-0.7,9.2-2.2s4.7-3.4,6.1-6s2.2-5.6,2.2-8.9c0-2.5-0.4-4.8-1.2-6.9C416.6,29.9,415.4,28.1,413.8,26.6L413.8,26.6z M409.5,45.8
			c-0.8,2-1.8,3.4-3.2,4.5c-1.4,1-3.1,1.6-5.1,1.6s-3.6-0.5-5-1.6c-1.4-1-2.5-2.5-3.2-4.5c-0.8-2-1.1-4.3-1.1-6.9s0.4-5,1.1-6.9
			c0.8-1.9,1.8-3.4,3.2-4.5c1.4-1,3.1-1.5,5-1.5s3.7,0.5,5.1,1.5c1.4,1,2.5,2.5,3.2,4.5c0.8,1.9,1.1,4.2,1.1,6.9
			S410.2,43.9,409.5,45.8z"/>
		<path class="st0" d="M446.7,21.9c-1.8,0-3.3,0.4-4.6,1.3c-1.3,0.8-2.4,2-3.3,3.5c-0.7,1-1.2,2.2-1.8,3.6v-7.7h-11.9v3.4l0.6,0.1
			c1,0.2,1.7,0.3,2.4,0.5c0.6,0.2,1.1,0.4,1.4,0.7c0.3,0.3,0.5,0.8,0.5,1.3v21.2c0,0.9-0.4,1.4-1.3,1.7c-0.9,0.3-2,0.4-3.4,0.4h-0.1
			v3.3h18.3v-3.3h-0.9c-0.6,0-1.2,0-2-0.1s-1.5-0.3-2-0.5c-0.6-0.3-0.9-0.7-0.9-1.3V33.6c0.2-0.3,0.3-0.6,0.5-0.9
			c0.6-0.9,1.2-1.6,1.9-2.2c0.7-0.6,1.5-1,2.3-1.3s1.8-0.4,2.9-0.4c0.4,0,0.9,0,1.3,0.1s0.9,0.1,1.3,0.2s0.8,0.2,1.1,0.3v-7.2
			c-0.2-0.1-0.5-0.2-1-0.2C447.6,21.9,447.2,21.9,446.7,21.9L446.7,21.9z"/>
		<path class="st0" d="M490.5,51.9c-0.7-0.1-1.3-0.4-1.9-0.7c-0.6-0.3-1.2-0.8-1.7-1.5l-11.2-13.5l7.8-7.3c0.7-0.7,1.5-1.3,2.2-1.7
			c0.8-0.5,1.5-0.8,2.4-1c0.8-0.2,1.7-0.3,2.5-0.3h0.1v-3.3h-16.2v3.3h0.3c0.6,0,1.3,0,2.1,0.1c0.8,0.1,1.5,0.2,2.1,0.3
			c0.6,0.2,0.9,0.4,0.9,0.7l-11.5,10.6v0.7l10.8,13.1c0,0.1-0.2,0.2-0.7,0.3c-0.5,0.1-1,0.2-1.7,0.2c-0.7,0-1.2,0.1-1.7,0.1h-0.2
			v3.3h17.9v-3.3h-0.1C491.9,52.1,491.2,52,490.5,51.9L490.5,51.9z"/>
		<path class="st0" d="M469.1,52c-0.7,0-1.2-0.1-1.7-0.2c-0.5-0.1-0.7-0.2-0.7-0.3V7.9h-12.6v3.4l0.7,0.1c1,0.2,1.8,0.3,2.4,0.5
			c0.6,0.2,1,0.4,1.3,0.7c0.3,0.3,0.4,0.8,0.4,1.4v35.7c0,0.6-0.2,1-0.6,1.3s-0.9,0.6-1.7,0.7s-1.5,0.2-2.4,0.2h-0.1v3.3H471v-3.3
			h-0.2C470.3,52.1,469.7,52,469.1,52L469.1,52z"/>
		<path class="st0" d="M521.3,38.8c-1.1-0.7-2.3-1.3-3.6-1.7s-2.6-0.8-4-1.2c-1.1-0.3-2.2-0.6-3.2-0.9c-1-0.3-1.9-0.6-2.7-1
			c-0.8-0.4-1.5-0.9-1.9-1.4c-0.5-0.6-0.7-1.3-0.7-2.2c0-1.4,0.5-2.5,1.5-3.3s2.5-1.3,4.5-1.3c1.1,0,2.1,0.1,3,0.3
			c0.8,0.2,1.6,0.5,2.3,0.9v4.5h6.4v-6.9c-0.5-0.4-1.2-0.8-2.2-1.3c-1-0.5-2.3-0.8-3.9-1.2s-3.4-0.5-5.5-0.5c-2.7,0-5,0.4-6.9,1.2
			c-1.9,0.8-3.4,1.9-4.5,3.4s-1.6,3.3-1.6,5.3c0,1.7,0.3,3.1,1,4.3s1.5,2.1,2.6,2.8c1.1,0.7,2.3,1.3,3.6,1.7
			c1.3,0.4,2.7,0.8,3.9,1.2c1.1,0.3,2.2,0.5,3.1,0.8c1,0.3,1.8,0.6,2.6,1s1.3,0.8,1.8,1.4c0.5,0.6,0.7,1.2,0.7,2.1
			c0,1.1-0.3,2-0.8,2.7c-0.6,0.7-1.3,1.3-2.3,1.7c-1,0.4-2.2,0.6-3.6,0.6c-1.3,0-2.6-0.1-3.7-0.4s-2.1-0.7-3.1-1.2
			c-0.2-0.1-0.3-0.2-0.4-0.3v-5h-6.6v7.4c1,0.6,2.1,1.1,3.4,1.7c1.3,0.5,2.8,1,4.6,1.3s3.7,0.5,5.8,0.5c3,0,5.5-0.4,7.6-1.3
			c2.1-0.9,3.6-2.1,4.7-3.6s1.7-3.3,1.7-5.3c0-1.7-0.3-3.1-1-4.2C523.3,40.4,522.4,39.5,521.3,38.8L521.3,38.8z"/>
		<path class="st0" d="M537.2,46.3c-1.6,0-2.8,0.4-3.8,1.3c-0.9,0.9-1.4,2-1.4,3.4s0.5,2.6,1.4,3.4c0.9,0.9,2.2,1.3,3.8,1.3
			s2.8-0.4,3.8-1.3c0.9-0.9,1.4-2,1.4-3.4s-0.5-2.6-1.4-3.4S538.8,46.3,537.2,46.3z"/>
		<path class="st0" d="M581.6,51.7c-0.7-0.1-1.2-0.3-1.7-0.7c-0.4-0.3-0.6-0.7-0.6-1.3V22.5h-13.4v3.4l1.2,0.1
			c1.5,0.2,2.6,0.5,3.3,0.8c0.8,0.3,1.1,1,1.1,1.8v16.9c-0.5,0.8-1.1,1.6-1.7,2.2c-1,1.1-2.1,1.9-3.2,2.5c-1.1,0.6-2.3,0.8-3.6,0.8
			c-1.2,0-2.2-0.2-2.9-0.7s-1.2-1.2-1.5-2.1c-0.3-0.9-0.5-2.2-0.5-3.6V22.5h-12.6v3.4l0.7,0.1c1.5,0.2,2.5,0.5,3.2,0.8
			c0.7,0.3,1,1,1,1.8v16.6c0,2.4,0.4,4.4,1.3,6s2.1,2.7,3.7,3.5c1.6,0.8,3.4,1.2,5.5,1.2c1.7,0,3.3-0.3,4.7-0.8
			c1.4-0.5,2.7-1.3,3.8-2.4c1-0.9,1.9-2,2.8-3.2v5.8h12V52H584C583.1,51.9,582.3,51.9,581.6,51.7L581.6,51.7z"/>
		<path class="st0" d="M627.7,52.1c-0.7,0-1.4-0.1-2.1-0.2s-1.3-0.4-1.9-0.7c-0.6-0.3-1.2-0.8-1.7-1.5l-11.2-13.5l7.8-7.3
			c0.7-0.7,1.5-1.3,2.2-1.7c0.8-0.5,1.5-0.8,2.4-1c0.8-0.2,1.7-0.3,2.5-0.3h0.1v-3.3h-16.2v3.3h0.3c0.6,0,1.3,0,2.1,0.1
			c0.8,0.1,1.5,0.2,2.1,0.3c0.6,0.2,0.9,0.4,0.9,0.7l-11.5,10.6v0.7l10.8,13.1c0,0.1-0.2,0.2-0.7,0.3c-0.5,0.1-1,0.2-1.7,0.2
			c-0.7,0-1.2,0.1-1.7,0.1h-0.2v3.3h17.9v-3.3L627.7,52.1L627.7,52.1z"/>
		<path class="st0" d="M604.1,52c-0.7,0-1.2-0.1-1.7-0.2c-0.5-0.1-0.7-0.2-0.7-0.3V7.9h-12.6v3.4l0.7,0.1c1,0.2,1.8,0.3,2.4,0.5
			c0.6,0.2,1,0.4,1.3,0.7c0.3,0.3,0.4,0.8,0.4,1.4v35.7c0,0.6-0.2,1-0.6,1.3s-0.9,0.6-1.7,0.7s-1.5,0.2-2.4,0.2h-0.1v3.3H606v-3.3
			h-0.2C605.3,52.1,604.8,52,604.1,52L604.1,52z"/>
	</g>
	<g>
		<path class="st0" d="M189.4,89.7c-0.1-0.1-0.3-0.1-0.4-0.2c0.6-0.3,1.1-0.7,1.4-1.2c0.4-0.6,0.6-1.3,0.6-2.1
			c0-1.2-0.5-2.1-1.4-2.8c-1-0.7-2.4-1.1-4.3-1.1H178v15h7.8c2,0,3.5-0.4,4.5-1.1c1-0.7,1.5-1.7,1.5-3c0-0.9-0.2-1.6-0.6-2.2
			C190.7,90.5,190.2,90,189.4,89.7L189.4,89.7z M184.9,85c0.9,0,1.5,0.1,2,0.4c0.5,0.3,0.7,0.7,0.7,1.3s-0.2,1.1-0.7,1.3
			c-0.5,0.3-1.1,0.4-2,0.4h-3.5V85L184.9,85L184.9,85z M187.6,94.3c-0.5,0.3-1.1,0.4-2,0.4h-4.1v-3.7h4.1c0.9,0,1.6,0.2,2,0.4
			c0.5,0.3,0.7,0.8,0.7,1.4S188,94,187.6,94.3L187.6,94.3z"/>
		<polygon class="st0" points="202.2,91.1 209.2,91.1 209.2,88.4 202.2,88.4 202.2,85.2 210.1,85.2 210.1,82.4 198.7,82.4 
			198.7,97.4 210.4,97.4 210.4,94.6 202.2,94.6 		"/>
		<path class="st0" d="M227,89.8c-0.5-0.3-1.1-0.6-1.7-0.8c-0.6-0.2-1.2-0.4-1.9-0.5s-1.2-0.3-1.7-0.4c-0.5-0.1-0.9-0.3-1.2-0.6
			s-0.5-0.6-0.5-1c0-0.3,0.1-0.6,0.3-0.9s0.5-0.5,0.9-0.6c0.4-0.2,1-0.2,1.7-0.2s1.4,0.1,2.1,0.3c0.7,0.2,1.4,0.5,2.1,0.9l1.1-2.6
			c-0.7-0.4-1.5-0.8-2.4-1c-0.9-0.2-1.9-0.3-2.8-0.3c-1.4,0-2.6,0.2-3.5,0.6s-1.6,1-2.1,1.7s-0.7,1.5-0.7,2.3c0,0.8,0.1,1.4,0.5,2
			c0.3,0.5,0.7,0.9,1.2,1.3c0.5,0.3,1.1,0.6,1.7,0.8c0.6,0.2,1.2,0.4,1.9,0.5c0.6,0.1,1.2,0.3,1.7,0.4s0.9,0.3,1.3,0.6
			c0.3,0.2,0.5,0.6,0.5,1c0,0.3-0.1,0.6-0.3,0.8c-0.2,0.2-0.5,0.4-0.9,0.6c-0.4,0.1-1,0.2-1.7,0.2c-0.9,0-1.8-0.1-2.7-0.4
			c-0.9-0.3-1.6-0.7-2.3-1.1l-1.2,2.6c0.7,0.5,1.6,0.9,2.7,1.3c1.1,0.3,2.3,0.5,3.5,0.5c1.4,0,2.6-0.2,3.5-0.6c1-0.4,1.6-1,2.1-1.7
			s0.7-1.5,0.7-2.3c0-0.8-0.2-1.4-0.5-1.9C228,90.5,227.5,90.1,227,89.8L227,89.8z"/>
		<path class="st0" d="M245.5,83c-1-0.4-2.1-0.7-3.5-0.7h-6.5v15h3.5v-4.2h3c1.4,0,2.5-0.2,3.5-0.7c1-0.4,1.7-1.1,2.3-1.9
			s0.8-1.8,0.8-2.9s-0.3-2.1-0.8-2.9C247.2,84.1,246.4,83.5,245.5,83L245.5,83z M244.2,89.7c-0.5,0.5-1.4,0.7-2.4,0.7H239v-5.2h2.8
			c1.1,0,1.9,0.2,2.4,0.7c0.5,0.4,0.8,1.1,0.8,1.9S244.7,89.3,244.2,89.7z"/>
		<path class="st0" d="M268.7,84.3c-0.8-0.7-1.6-1.2-2.6-1.6c-1-0.4-2.1-0.6-3.3-0.6s-2.3,0.2-3.3,0.6s-1.9,0.9-2.6,1.6
			c-0.8,0.7-1.3,1.5-1.7,2.5s-0.6,2-0.6,3.1s0.2,2.2,0.6,3.1c0.4,1,1,1.8,1.7,2.5c0.8,0.7,1.6,1.2,2.6,1.6c1,0.4,2.1,0.6,3.3,0.6
			s2.3-0.2,3.3-0.6s1.9-0.9,2.6-1.6c0.8-0.7,1.3-1.5,1.7-2.5c0.4-0.9,0.6-2,0.6-3.1s-0.2-2.2-0.6-3.1S269.4,85,268.7,84.3
			L268.7,84.3z M267.1,91.8c-0.2,0.6-0.6,1.1-1,1.5s-0.9,0.8-1.5,1c-0.6,0.2-1.2,0.4-1.9,0.4s-1.3-0.1-1.9-0.4
			c-0.6-0.2-1.1-0.6-1.5-1c-0.4-0.4-0.8-0.9-1-1.5s-0.4-1.2-0.4-1.9s0.1-1.4,0.4-1.9c0.2-0.6,0.6-1.1,1-1.5c0.4-0.4,0.9-0.8,1.5-1
			c0.6-0.2,1.2-0.3,1.9-0.3s1.3,0.1,1.9,0.3c0.6,0.2,1.1,0.6,1.5,1s0.8,0.9,1,1.5s0.4,1.2,0.4,1.9S267.4,91.3,267.1,91.8z"/>
		<polygon class="st0" points="291.9,82.4 288.1,82.4 281.4,89.4 281.4,82.4 277.9,82.4 277.9,97.4 281.4,97.4 281.4,93.6 
			283.4,91.5 288.2,97.4 292.3,97.4 285.7,89.1 		"/>
		<polygon class="st0" points="301.6,91.1 308.6,91.1 308.6,88.4 301.6,88.4 301.6,85.2 309.5,85.2 309.5,82.4 298.2,82.4 
			298.2,97.4 309.8,97.4 309.8,94.6 301.6,94.6 		"/>
		<path class="st0" d="M337.3,83c-1-0.4-2.1-0.7-3.5-0.7h-6.5v15h3.5v-4.2h3c1.4,0,2.5-0.2,3.5-0.7c1-0.4,1.7-1.1,2.3-1.9
			s0.8-1.8,0.8-2.9s-0.3-2.1-0.8-2.9C339,84.1,338.3,83.5,337.3,83L337.3,83z M336,89.7c-0.5,0.5-1.4,0.7-2.4,0.7h-2.8v-5.2h2.8
			c1.1,0,1.9,0.2,2.4,0.7c0.5,0.4,0.8,1.1,0.8,1.9S336.6,89.3,336,89.7z"/>
		<path class="st0" d="M357.1,92.6c1-0.4,1.7-1,2.3-1.8s0.8-1.8,0.8-2.9c0-1.7-0.6-3-1.7-4s-2.8-1.4-4.9-1.4h-6.4v15h3.5v-4.2h3
			c0,0,0.1,0,0.1,0l2.9,4.2h3.7L357.1,92.6C357.1,92.6,357.1,92.6,357.1,92.6L357.1,92.6z M355.8,85.9c0.5,0.4,0.8,1.1,0.8,1.9
			s-0.3,1.5-0.8,1.9c-0.5,0.5-1.4,0.7-2.4,0.7h-2.8v-5.2h2.8C354.5,85.2,355.3,85.4,355.8,85.9z"/>
		<path class="st0" d="M380.4,84.3c-0.8-0.7-1.6-1.2-2.6-1.6c-1-0.4-2.1-0.6-3.3-0.6s-2.3,0.2-3.3,0.6s-1.9,0.9-2.6,1.6
			c-0.8,0.7-1.3,1.5-1.7,2.5s-0.6,2-0.6,3.1s0.2,2.2,0.6,3.1c0.4,0.9,1,1.8,1.7,2.5c0.8,0.7,1.6,1.2,2.6,1.6c1,0.4,2.1,0.6,3.3,0.6
			s2.3-0.2,3.3-0.6s1.9-0.9,2.6-1.6s1.3-1.5,1.7-2.5c0.4-0.9,0.6-2,0.6-3.1s-0.2-2.2-0.6-3.1C381.7,85.8,381.1,85,380.4,84.3
			L380.4,84.3z M378.8,91.8c-0.2,0.6-0.6,1.1-1,1.5s-0.9,0.8-1.5,1c-0.6,0.2-1.2,0.4-1.9,0.4s-1.3-0.1-1.9-0.4
			c-0.6-0.2-1.1-0.6-1.5-1c-0.4-0.4-0.8-0.9-1-1.5s-0.4-1.2-0.4-1.9s0.1-1.4,0.4-1.9c0.2-0.6,0.6-1.1,1-1.5c0.4-0.4,0.9-0.8,1.5-1
			c0.6-0.2,1.2-0.3,1.9-0.3s1.3,0.1,1.9,0.3c0.6,0.2,1.1,0.6,1.5,1s0.8,0.9,1,1.5s0.4,1.2,0.4,1.9S379.1,91.3,378.8,91.8z"/>
		<path class="st0" d="M388.8,85.2h5.3v7.2c0,1.6-0.7,2.5-2.1,2.5c-0.5,0-1-0.1-1.5-0.4c-0.5-0.3-0.9-0.7-1.3-1.2l-1.9,2.3
			c0.5,0.7,1.2,1.3,2.1,1.6c0.9,0.4,1.8,0.6,2.8,0.6c1.8,0,3.1-0.5,4-1.4c0.9-0.9,1.4-2.3,1.4-4.2v-9.8h-8.8L388.8,85.2L388.8,85.2z
			"/>
		<polygon class="st0" points="408.7,91.1 415.7,91.1 415.7,88.4 408.7,88.4 408.7,85.2 416.6,85.2 416.6,82.4 405.3,82.4 
			405.3,97.4 416.9,97.4 416.9,94.6 408.7,94.6 		"/>
		<path class="st0" d="M427.9,86.4c0.4-0.4,0.9-0.8,1.5-1s1.2-0.3,1.9-0.3c0.8,0,1.4,0.2,2.1,0.4c0.6,0.3,1.2,0.8,1.7,1.3l2.3-2.1
			c-0.7-0.9-1.6-1.5-2.7-2s-2.2-0.7-3.5-0.7c-1.2,0-2.2,0.2-3.2,0.6s-1.9,0.9-2.6,1.6c-0.7,0.7-1.3,1.5-1.7,2.5s-0.6,2-0.6,3.1
			s0.2,2.2,0.6,3.1c0.4,0.9,1,1.8,1.7,2.5c0.7,0.7,1.6,1.2,2.6,1.6c1,0.4,2.1,0.6,3.2,0.6c1.3,0,2.5-0.2,3.6-0.7s2-1.1,2.7-2
			l-2.3-2.1c-0.5,0.6-1.1,1-1.7,1.3c-0.6,0.3-1.3,0.5-2.1,0.5c-0.7,0-1.3-0.1-1.9-0.4c-0.6-0.2-1.1-0.6-1.5-1s-0.8-0.9-1-1.5
			s-0.4-1.2-0.4-2s0.1-1.4,0.4-2C427.2,87.3,427.5,86.8,427.9,86.4L427.9,86.4z"/>
		<polygon class="st0" points="441.9,85.2 446.7,85.2 446.7,97.4 450.2,97.4 450.2,85.2 455,85.2 455,82.4 441.9,82.4 		"/>
		<path class="st0" d="M471.9,91.1c-0.3-0.5-0.7-0.9-1.3-1.2s-1.1-0.6-1.7-0.8c-0.6-0.2-1.2-0.4-1.9-0.5s-1.2-0.3-1.7-0.4
			c-0.5-0.1-0.9-0.3-1.2-0.6s-0.5-0.6-0.5-1c0-0.3,0.1-0.6,0.3-0.9s0.5-0.5,0.9-0.6c0.4-0.2,1-0.2,1.7-0.2s1.3,0.1,2.1,0.3
			c0.7,0.2,1.4,0.5,2.1,0.9l1.1-2.6c-0.7-0.4-1.5-0.8-2.4-1c-0.9-0.2-1.9-0.3-2.8-0.3c-1.4,0-2.6,0.2-3.5,0.6s-1.6,1-2.1,1.7
			c-0.5,0.7-0.7,1.5-0.7,2.3c0,0.8,0.2,1.4,0.5,2c0.3,0.5,0.7,0.9,1.2,1.3c0.5,0.3,1.1,0.6,1.7,0.8c0.6,0.2,1.2,0.4,1.9,0.5
			c0.6,0.1,1.2,0.3,1.7,0.4s0.9,0.3,1.3,0.6c0.3,0.2,0.5,0.6,0.5,1c0,0.3-0.1,0.6-0.3,0.8c-0.2,0.2-0.5,0.4-0.9,0.6
			c-0.4,0.1-1,0.2-1.7,0.2c-0.9,0-1.8-0.1-2.7-0.4c-0.9-0.3-1.7-0.7-2.3-1.1l-1.2,2.6c0.7,0.5,1.6,0.9,2.7,1.3
			c1.1,0.3,2.3,0.5,3.5,0.5c1.4,0,2.6-0.2,3.5-0.6s1.7-1,2.1-1.7s0.7-1.5,0.7-2.3C472.4,92.2,472.2,91.6,471.9,91.1L471.9,91.1z"/>
	</g>
</g>
</svg>
