<?xml version="1.0" encoding="UTF-8"?>
<svg id="Layer_2" data-name="Layer 2" xmlns="http://www.w3.org/2000/svg" viewBox="0 0 2278.02 2278.02">
  <defs>
    <style>
      .cls-1 {
        fill: none;
      }

      .cls-1, .cls-2 {
        stroke-width: 0px;
      }

      .cls-2 {
        fill: #ca9c53;
      }
    </style>
  </defs>
  <g id="Layer_1-2" data-name="Layer 1">
    <path class="cls-2" d="M2009.23,1692.09c-29.85-11.32-60.12-22.12-90.69-32.31v-877.55l-778.77-449.6-778.82,449.6v876.98C236.63,1700.74,115.73,1752.41,0,1814.17c117.73-52.64,238.32-96.99,360.96-132.78,18.23-5.33,36.56-10.5,54.89-15.46,112.05-30.27,225.65-53.41,340.09-69.5.41,21.25.81,41.72,1.14,60.23,2.54,116.98-86.88,227.7-201.8,253.24-15.16,3.83-30.77,5.8-46.36,7.04l-.81.07c-.14.1-.27-.18-.41.24-1.45,4.4-2.52,7.98-3.85,13.78,1.14,5.1,2.28,8.88,3.42,12.51l.43,1.28c.14.42.3.13.44.22,0,0,.9.03.9.03,12.56.51,25.3.57,37.83-.63,147.17-10.2,267.74-139.15,272.45-286.25.67-23.09,1.23-46.58,1.72-70.21,347.22-40.49,701.03-15.4,1042.31,78.16,18.33,4.97,36.61,10.19,54.84,15.62,16.8,4.97,33.54,10.14,50.29,15.46,105.03,33.39,208.67,72.46,309.55,116.96-86.85-46.45-176.67-87.16-268.79-122.08ZM1139.78,379.89l737.8,426v235.4h-373.76l-25.37,54.37-130.97,280.9-55.21-118.4-23.32-49.96-52.5-112.54-25.37-54.37h-79.98l25.37,54.37,92.43,198.32-38.48,82.58-131.03-280.9-25.37-54.37h-210.33c-.12-13.57-.25-27.07-.39-40.44-.54-63.98-2.55-153.01-3.71-218.09-.53-65.01,25.32-130.33,71.7-178.53,43.47-45.98,105.08-75.59,168.44-81.11l6.49-.57,1.62-.14.81-.07c.14-.1.27.18.41-.24,1.45-4.38,2.52-7.94,3.85-13.71-1.33-5.62-2.38-9.48-3.85-13.71-.14-.42-.3-.12-.44-.22l-.9-.03s-1.79-.06-1.79-.06c-75.84-3.59-151.53,24.07-208.17,75.01-63.71,56.31-100.88,141.01-100.72,226.29-.17,6.85-.74,34.63-.92,41.03-1.39,67.48-2.38,135.9-3.03,204.58h-351.16v-235.4l737.85-426ZM401.93,1645.95v-550.3h350.73c-.76,114.93-.53,230.2.75,342.9.28,36.5,1.06,81.14,1.9,124.84-119.66,18.78-237.9,46.3-353.38,82.56ZM1654.42,1587.57c-272.73-58.62-555.82-69.5-832.72-33.69.69-38.77,1.2-77.59,1.65-115.33,1.34-110.42,1.48-228.76.75-342.9h155.31l152.11,326.21h84.39l36.31-77.87,36.31,77.87h84.45l152.11-326.21h352.5v550.81c-73.59-23.2-148.5-43.01-223.16-58.89Z"/>
    <rect class="cls-1" width="2278.02" height="2278.02"/>
  </g>
</svg>